HIERARCHY
ROOT Hips
{
  OFFSET 0.000000 0.000000 0.000000
  CHANNELS 6 Xposition Yposition Zposition Xrotation Yrotation Zrotation
  JOINT Spine
  {
    OFFSET 1.029272 24.139234 -3.309675
    CHANNELS 3 Xrotation Yrotation Zrotation
    JOINT Chest
    {
      OFFSET 1.029272 24.139234 -3.309675
      CHANNELS 3 Xrotation Yrotation Zrotation
      JOINT Neck
      {
        OFFSET -1.131418 6.442996 -7.943566
        CHANNELS 3 Xrotation Yrotation Zrotation
        JOINT Head
        {
          OFFSET -1.916145 7.107403 -12.164473
          CHANNELS 3 Xrotation Yrotation Zrotation
          End Site
          {
            OFFSET -0.574843 2.132221 -3.649342
          }
        }
      }
      JOINT LeftCollar
      {
        OFFSET 3.000000 4.000000 0.000000
        CHANNELS 3 Xrotation Yrotation Zrotation
        JOINT LeftShoulder
        {
          OFFSET 15.824782 -3.385161 -4.490161
          CHANNELS 3 Xrotation Yrotation Zrotation
          JOINT LeftArm
          {
            OFFSET 6.638871 -21.899489 2.577768
            CHANNELS 3 Xrotation Yrotation Zrotation
            JOINT LeftForeArm
            {
              OFFSET 1.662469 -23.769893 2.728891
              CHANNELS 3 Xrotation Yrotation Zrotation
              JOINT LeftHand
              {
                OFFSET -1.157011 -3.989585 -0.720753
                CHANNELS 3 Xrotation Yrotation Zrotation
                End Site
                {
                  OFFSET -0.347103 -1.196876 -0.216226
                }
              }
            }
          }
        }
      }
      JOINT RightCollar
      {
        OFFSET -3.000000 4.000000 0.000000
        CHANNELS 3 Xrotation Yrotation Zrotation
        JOINT RightShoulder
        {
          OFFSET -15.824782 3.385161 4.490161
          CHANNELS 3 Xrotation Yrotation Zrotation
          JOINT RightArm
          {
            OFFSET -4.830150 -29.706995 -0.659229
            CHANNELS 3 Xrotation Yrotation Zrotation
            JOINT RightForeArm
            {
              OFFSET -6.735460 -18.902062 -7.831287
              CHANNELS 3 Xrotation Yrotation Zrotation
              JOINT RightHand
              {
                OFFSET 1.562441 -2.563879 -3.933201
                CHANNELS 3 Xrotation Yrotation Zrotation
                End Site
                {
                  OFFSET 0.468732 -0.769164 -1.179960
                }
              }
            }
          }
        }
      }
    }
  }
  JOINT LeftUpLeg
  {
    OFFSET 8.875314 -0.675327 -0.291526
    CHANNELS 3 Xrotation Yrotation Zrotation
    JOINT LeftLeg
    {
      OFFSET -2.390302 -38.516964 -5.036820
      CHANNELS 3 Xrotation Yrotation Zrotation
      JOINT LeftFoot
      {
        OFFSET -8.730226 -38.998584 -0.067483
        CHANNELS 3 Xrotation Yrotation Zrotation
        End Site
        {
          OFFSET -2.619068 -11.699575 -0.020245
        }
      }
    }
  }
  JOINT RightUpLeg
  {
    OFFSET -8.875314 0.675327 0.291526
    CHANNELS 3 Xrotation Yrotation Zrotation
    JOINT RightLeg
    {
      OFFSET 8.015065 -34.486904 0.724164
      CHANNELS 3 Xrotation Yrotation Zrotation
      JOINT RightFoot
      {
        OFFSET 4.389306 -41.028927 12.321156
        CHANNELS 3 Xrotation Yrotation Zrotation
        End Site
        {
          OFFSET 1.316792 -12.308678 3.696347
        }
      }
    }
  }
}
MOTION
Frames: 6
Frame Time: 0.083333
-38.616425 67.819870 -42.095787 0.794353 -0.419760 -2.970280 0.000000 0.000000 0.000000 -1.095424 -0.592319 2.268354 0.200693 -0.027086 0.159170 -169.030732 -6.515696 -13.756453 -1.248943 -6.857926 0.903220 -1.768643 6.074443 -1.953082 10.969292 1.865050 2.217350 0.000000 0.000000 0.000000 0.000000 0.000000 0.000000 -1.248943 -6.857926 0.903220 3.030884 7.201025 -0.581818 -0.982957 -0.351688 1.443579 0.000000 0.000000 0.000000 0.000000 0.000000 0.000000 -3.872517 -0.303091 8.988715 -10.395667 6.046199 5.932877 0.000000 0.000000 0.000000 -2.668969 -0.403136 -11.613271 7.200189 -0.468967 0.066916 0.000000 0.000000 0.000000
-38.822251 67.553629 -42.647648 1.666764 -0.430747 -2.943731 0.000000 0.000000 0.000000 -1.997955 -0.628294 2.252275 0.219467 -0.069342 0.131509 -169.071645 -6.289927 -13.667479 -1.174611 -6.490021 0.745248 -1.214762 6.000271 -2.864224 10.532152 1.965329 2.973893 0.000000 0.000000 0.000000 0.000000 0.000000 0.000000 -1.174611 -6.490021 0.745248 2.705629 7.148928 -0.997474 -0.825962 -0.484923 2.142549 0.000000 0.000000 0.000000 0.000000 0.000000 0.000000 -4.612288 -0.284338 8.821817 -10.693660 6.297495 6.240520 0.000000 0.000000 0.000000 -3.503938 -0.658893 -11.888308 8.121539 -0.032158 -0.461607 0.000000 0.000000 0.000000
-39.188948 67.488988 -43.729654 1.963281 -0.422048 -2.832796 0.000000 0.000000 0.000000 -2.325756 -0.608970 2.180462 0.227470 -0.095094 0.106871 -169.102037 -5.969454 -13.611112 -1.139441 -6.404313 0.632482 -1.325095 5.660471 -4.376931 10.404420 2.474343 4.033375 0.000000 0.000000 0.000000 0.000000 0.000000 0.000000 -1.139441 -6.404313 0.632482 2.398166 7.124963 -1.135808 -0.967930 -0.571401 2.500044 0.000000 0.000000 0.000000 0.000000 0.000000 0.000000 -4.692950 -0.275428 8.716758 -11.415657 6.727809 6.153839 0.000000 0.000000 0.000000 -4.263131 -1.099207 -12.500285 9.199403 0.585963 -0.792071 0.000000 0.000000 0.000000
-39.683162 67.597541 -45.359669 1.745414 -0.393202 -2.632474 0.000000 0.000000 0.000000 -2.141133 -0.590536 2.009045 0.237148 -0.126014 0.080890 -169.121203 -5.529911 -13.540308 -1.100376 -6.359055 0.580279 -1.373875 5.340590 -4.917918 9.910646 2.601930 4.117541 0.000000 0.000000 0.000000 0.000000 0.000000 0.000000 -1.100376 -6.359055 0.580279 2.238714 6.921379 -1.135833 -1.183783 -0.664134 2.812490 0.000000 0.000000 0.000000 0.000000 0.000000 0.000000 -5.331546 -0.205269 8.508514 -12.195980 7.360081 5.515209 0.000000 0.000000 0.000000 -4.068007 -1.218666 -12.270162 8.681895 0.171205 -1.550512 0.000000 0.000000 0.000000
-40.243970 67.772114 -46.821935 1.198210 -0.326786 -2.195675 0.000000 0.000000 0.000000 -1.599881 -0.597798 1.587120 0.246896 -0.169949 0.048742 -169.088915 -5.329920 -13.337787 -1.064954 -6.158214 0.503472 -1.278107 5.259226 -4.918429 9.336983 2.476649 3.842458 0.000000 0.000000 0.000000 0.000000 0.000000 0.000000 -1.064954 -6.158214 0.503472 2.445859 6.739633 -0.758333 -1.535521 -0.697028 2.629273 0.000000 0.000000 0.000000 0.000000 0.000000 0.000000 -7.653855 0.018533 8.261647 -10.062320 7.046596 4.495826 0.000000 0.000000 0.000000 -4.374777 -1.551422 -11.803092 8.265522 -0.273510 -2.990977 0.000000 0.000000 0.000000
-40.799130 67.984811 -47.658750 0.578148 -0.232594 -1.582405 0.000000 0.000000 0.000000 -0.880328 -0.589375 1.000246 0.227348 -0.196769 0.022464 -168.985045 -5.142245 -13.221586 -1.142924 -6.092948 0.484944 -1.043884 5.499094 -4.867583 8.883807 2.312657 3.731158 0.000000 0.000000 0.000000 0.000000 0.000000 0.000000 -1.142924 -6.092948 0.484944 2.929137 6.777756 -0.168641 -1.759054 -0.669398 2.056780 0.000000 0.000000 0.000000 0.000000 0.000000 0.000000 -10.953384 0.353659 8.009340 -3.832717 5.256779 5.353474 0.000000 0.000000 0.000000 -5.572468 -2.136836 -11.768097 8.617180 0.016384 -3.455267 0.000000 0.000000 0.000000
